<?xml version="1.0" encoding="utf-8"?>
<!-- Generator: Adobe Illustrator 16.0.0, SVG Export Plug-In . SVG Version: 6.00 Build 0)  -->
<!DOCTYPE svg PUBLIC "-//W3C//DTD SVG 1.1//EN" "http://www.w3.org/Graphics/SVG/1.1/DTD/svg11.dtd">
<svg version="1.1" id="Layer_1" xmlns="http://www.w3.org/2000/svg" xmlns:xlink="http://www.w3.org/1999/xlink" x="0px" y="0px"
	 width="552.756px" height="158.74px" viewBox="18.565 339.712 552.756 158.74"
	 enable-background="new 18.565 339.712 552.756 158.74" xml:space="preserve">
<path fill="#2E3039" d="M30.563,363.944h54.382c15.122,0,26.85,4.25,34.669,12.069c6.628,6.624,10.198,15.975,10.198,27.188v0.337
	c0,18.695-9.35,30.248-23.794,36.199l18.184,22.094c2.552,3.229,4.248,5.949,4.248,10.023c0,7.313-6.114,12.068-12.406,12.068
	c-5.949,0-9.852-2.889-12.916-6.797l-25.49-32.291h-20.9v26c0,7.309-5.777,13.088-13.084,13.088c-7.313,0-13.09-5.779-13.09-13.088
	V363.944z M83.25,421.73c12.745,0,20.051-6.802,20.051-16.823v-0.345c0-11.212-7.819-16.997-20.564-16.997H56.737v34.164
	L83.25,421.73L83.25,421.73z"/>
<path fill="#2E3039" d="M150.437,370.063c0-7.474,6.29-12.062,14.446-12.062c8.157,0,14.447,4.587,14.447,12.062v0.343
	c0,7.471-6.29,12.231-14.447,12.231c-8.156,0-14.446-4.761-14.446-12.231V370.063z M151.966,403.712
	c0-7.143,5.776-12.917,12.916-12.917c7.141,0,12.92,5.774,12.92,12.917v67.301c0,7.131-5.779,12.91-12.92,12.91
	c-7.14,0-12.916-5.779-12.916-12.91V403.712z"/>
<path fill="#2E3039" d="M293.723,471.013c0,7.131-5.776,12.91-12.911,12.91c-7.139,0-12.916-5.779-12.916-12.91v-1.191
	c-6.289,8.496-14.958,14.785-28.38,14.785c-21.241,0-41.463-16.662-41.463-47.076v-0.336c0-30.424,19.882-47.075,41.463-47.075
	c13.77,0,22.266,6.287,28.38,13.593v-32.968c0-7.141,5.777-12.915,12.916-12.915c7.136,0,12.911,5.774,12.911,12.915V471.013
	L293.723,471.013z M223.879,437.195v0.336c0,15.125,10.198,25.152,22.265,25.152c12.067,0,22.09-10.027,22.09-25.152v-0.336
	c0-15.125-10.022-25.16-22.09-25.16C234.079,412.036,223.879,421.896,223.879,437.195z"/>
<path fill="#2E3039" d="M405.916,470.33c0,7.135-5.775,12.912-12.906,12.912c-7.143,0-12.92-5.777-12.92-12.912v-1.189
	c-6.289,8.496-14.957,14.785-28.383,14.785c-21.236,0-41.461-16.662-41.461-47.072v-0.34c0-30.423,19.883-47.078,41.461-47.078
	c13.771,0,22.268,6.291,28.383,13.597v-32.97c0-7.14,5.777-12.917,12.92-12.917c7.131,0,12.906,5.778,12.906,12.917V470.33z
	 M336.072,436.513v0.34c0,15.119,10.199,25.148,22.268,25.148c12.066,0,22.09-10.029,22.09-25.148v-0.34
	c0-15.124-10.023-25.159-22.09-25.159C346.271,411.354,336.072,421.213,336.072,436.513z"/>
<path fill="#2E3039" d="M430.279,370.063c0-7.14,5.775-12.917,12.916-12.917c7.143,0,12.92,5.778,12.92,12.917V470.33
	c0,7.135-5.777,12.912-12.92,12.912c-7.141,0-12.916-5.777-12.916-12.912V370.063z"/>
<path fill="#2E3039" d="M523.605,484.265c-27.355,0-47.58-19.205-47.58-47.074v-0.338c0-26.002,18.523-47.417,45.033-47.417
	c30.416,0,43.846,24.983,43.846,43.847c0,7.477-5.271,12.402-12.066,12.402h-51.15c2.549,11.729,10.703,17.848,22.26,17.848
	c7.139,0,13.09-2.207,18.354-6.119c1.867-1.361,3.57-2.043,6.289-2.043c5.777,0,10.027,4.422,10.027,10.201
	c0,3.398-1.531,5.951-3.4,7.645C547.224,480.017,536.861,484.265,523.605,484.265z M540.259,429.542
	c-1.529-11.561-8.322-19.371-19.199-19.371c-10.709,0-17.68,7.646-19.719,19.371H540.259z"/>
<path fill="#2E3039" d="M339.353,418.292"/>
<path fill="#2E3039" d="M188.559,418.292"/>
</svg>
